<svg width="71" height="70" viewBox="0 0 71 70" fill="none" xmlns="http://www.w3.org/2000/svg">
<g id="anchor-fill 1">
<path id="Vector" d="M61.75 39.3749C61.7457 43.4347 60.131 47.327 57.2603 50.1977C54.3896 53.0684 50.4973 54.6831 46.4375 54.6874C44.1169 54.6874 41.8913 55.6093 40.2503 57.2502C38.6094 58.8912 37.6875 61.1168 37.6875 63.4374C37.6875 64.0176 37.457 64.574 37.0468 64.9842C36.6366 65.3944 36.0802 65.6249 35.5 65.6249C34.9198 65.6249 34.3634 65.3944 33.9532 64.9842C33.543 64.574 33.3125 64.0176 33.3125 63.4374C33.3125 61.1168 32.3906 58.8912 30.7497 57.2502C29.1087 55.6093 26.8831 54.6874 24.5625 54.6874C20.5027 54.6831 16.6104 53.0684 13.7397 50.1977C10.869 47.327 9.25434 43.4347 9.25 39.3749C9.25 38.7948 9.48047 38.2384 9.8907 37.8281C10.3009 37.4179 10.8573 37.1874 11.4375 37.1874C12.0177 37.1874 12.5741 37.4179 12.9843 37.8281C13.3945 38.2384 13.625 38.7948 13.625 39.3749C13.625 40.8112 13.9079 42.2335 14.4576 43.5605C15.0072 44.8875 15.8129 46.0933 16.8285 47.1089C18.8797 49.1601 21.6617 50.3124 24.5625 50.3124C27.7937 50.3105 30.9109 51.5058 33.3125 53.6675V34.9999H24.5625C23.9823 34.9999 23.4259 34.7694 23.0157 34.3592C22.6055 33.949 22.375 33.3926 22.375 32.8124C22.375 32.2323 22.6055 31.6759 23.0157 31.2656C23.4259 30.8554 23.9823 30.6249 24.5625 30.6249H33.3125V22.6487C31.5501 22.1233 30.0357 20.981 29.0463 19.4308C28.0569 17.8807 27.6585 16.0261 27.924 14.2063C28.1895 12.3865 29.1011 10.7231 30.4922 9.52024C31.8833 8.31736 33.6609 7.6554 35.5 7.6554C37.3391 7.6554 39.1167 8.31736 40.5078 9.52024C41.8989 10.7231 42.8105 12.3865 43.076 14.2063C43.3415 16.0261 42.9431 17.8807 41.9537 19.4308C40.9643 20.981 39.4499 22.1233 37.6875 22.6487V30.6249H46.4375C47.0177 30.6249 47.5741 30.8554 47.9843 31.2656C48.3945 31.6759 48.625 32.2323 48.625 32.8124C48.625 33.3926 48.3945 33.949 47.9843 34.3592C47.5741 34.7694 47.0177 34.9999 46.4375 34.9999H37.6875V53.6675C40.0891 51.5058 43.2063 50.3105 46.4375 50.3124C47.8738 50.3124 49.2961 50.0295 50.6231 49.4799C51.9501 48.9302 53.1558 48.1245 54.1715 47.1089C55.1871 46.0933 55.9928 44.8875 56.5424 43.5605C57.0921 42.2335 57.375 40.8112 57.375 39.3749C57.375 38.7948 57.6055 38.2384 58.0157 37.8281C58.4259 37.4179 58.9823 37.1874 59.5625 37.1874C60.1427 37.1874 60.6991 37.4179 61.1093 37.8281C61.5195 38.2384 61.75 38.7948 61.75 39.3749Z" fill="#8C394C"/>
</g>
</svg>
