<svg width="32" height="22" viewBox="0 0 32 22" fill="none" xmlns="http://www.w3.org/2000/svg">
<path d="M14.97 21.2425C14.9159 21.4589 14.7911 21.6509 14.6154 21.7882C14.4396 21.9254 14.223 22 14 22C13.9158 22.0004 13.8318 21.9903 13.75 21.97L9.75002 20.97C9.63866 20.942 9.53295 20.8951 9.43752 20.8313L6.43752 18.8313C6.21689 18.6841 6.06377 18.4553 6.01185 18.1952C5.95992 17.9351 6.01345 17.665 6.16064 17.4444C6.30784 17.2238 6.53665 17.0706 6.79674 17.0187C7.05683 16.9668 7.32689 17.0203 7.54752 17.1675L10.4025 19.0713L14.235 20.03C14.3631 20.0611 14.4837 20.1171 14.59 20.1949C14.6964 20.2727 14.7863 20.3708 14.8546 20.4835C14.9229 20.5962 14.9682 20.7212 14.988 20.8515C15.0078 20.9817 15.0017 21.1146 14.97 21.2425ZM31.5563 9.18502C31.4742 9.43424 31.3436 9.66474 31.172 9.8632C31.0003 10.0617 30.7911 10.2241 30.5563 10.3413L27.5963 11.8213L20.7113 18.7075C20.5891 18.8296 20.4373 18.9179 20.2709 18.9639C20.1044 19.0099 19.9288 19.012 19.7613 18.97L11.7613 16.97C11.6396 16.9395 11.5247 16.8865 11.4225 16.8138L4.48252 11.8588L1.44752 10.3413C0.973187 10.1041 0.612444 9.68836 0.444609 9.18532C0.276774 8.68229 0.315588 8.13319 0.552517 7.65877L3.65877 1.44752C3.89588 0.973186 4.31167 0.612442 4.81471 0.444607C5.31774 0.276773 5.86684 0.315587 6.34127 0.552516L9.09877 1.92752L15.7238 0.0350157C15.9035 -0.016392 16.094 -0.016392 16.2738 0.0350157L22.8988 1.92752L25.6563 0.552516C26.1307 0.315587 26.6798 0.276773 27.1828 0.444607C27.6859 0.612442 28.1017 0.973186 28.3388 1.44752L31.445 7.65877C31.5635 7.89319 31.6343 8.14878 31.6534 8.41076C31.6725 8.67273 31.6395 8.93589 31.5563 9.18502ZM25.7838 10.8025L22.3825 4.00002H18.405L13 9.25002C14.5825 10.2613 17.0638 10.54 19.29 8.29627C19.4639 8.12101 19.6964 8.01627 19.9429 8.00219C20.1894 7.98811 20.4323 8.0657 20.625 8.22002L24.9263 11.6663L25.7838 10.8025ZM2.34127 8.55252L4.55252 9.65877L7.65877 3.44752L5.44752 2.34127L2.34127 8.55252ZM23.5 13.0825L20.0363 10.3088C17.5938 12.3088 14.4925 12.5725 11.9225 10.9338C11.6697 10.773 11.4563 10.5574 11.298 10.303C11.1396 10.0486 11.0405 9.76196 11.0079 9.46412C10.9752 9.16629 11.0099 8.86493 11.1094 8.5823C11.2088 8.29968 11.3705 8.04301 11.5825 7.83127C11.5855 7.82763 11.5889 7.82428 11.5925 7.82127L17.2 2.38252L16 2.04002L9.69752 3.84127L6.27627 10.6825L12.4263 15.0763L19.6938 16.8925L23.5 13.0825ZM29.655 8.55252L26.5525 2.34127L24.3413 3.44752L27.4475 9.65877L29.655 8.55252Z" fill="#EC970F"/>
</svg>
