<svg width="21" height="24" viewBox="0 0 21 24" fill="none" xmlns="http://www.w3.org/2000/svg">
<g clip-path="url(#clip0_5397_3438)">
<path d="M7.03247 1.125C7.03247 0.501562 6.53742 0 5.92208 0C5.30674 0 4.81169 0.501562 4.81169 1.125V3H2.96104C1.32784 3 0 4.34531 0 6V6.75V9V21C0 22.6547 1.32784 24 2.96104 24H17.7662C19.3994 24 20.7273 22.6547 20.7273 21V9V6.75V6C20.7273 4.34531 19.3994 3 17.7662 3H15.9156V1.125C15.9156 0.501562 15.4205 0 14.8052 0C14.1899 0 13.6948 0.501562 13.6948 1.125V3H7.03247V1.125ZM2.22078 9H18.5065V21C18.5065 21.4125 18.1734 21.75 17.7662 21.75H2.96104C2.5539 21.75 2.22078 21.4125 2.22078 21V9Z" fill="#A4A6A8"/>
</g>
<defs>
<clipPath id="clip0_5397_3438">
<rect width="20.7273" height="24" fill="white"/>
</clipPath>
</defs>
</svg>
