<svg width="24" height="24" viewBox="0 0 24 24" fill="none" xmlns="http://www.w3.org/2000/svg">
<g clip-path="url(#clip0_5397_3162)">
<path d="M5.98594 5.00625L4.84688 8.25H19.1531L18.0187 5.00625C17.7563 4.25625 17.0438 3.75 16.2469 3.75H7.75312C6.95625 3.75 6.24844 4.25156 5.98125 5.00625H5.98594ZM2.25469 8.85L3.85781 4.26094C4.43906 2.60625 6 1.5 7.75312 1.5H16.2469C18 1.5 19.5609 2.60625 20.1422 4.26094L21.75 8.85C23.0906 9.62813 24 11.0813 24 12.75V16.5V18.75V21.375C24 21.9984 23.4984 22.5 22.875 22.5C22.2516 22.5 21.75 21.9984 21.75 21.375V18.75H2.25V21.375C2.25 21.9984 1.74844 22.5 1.125 22.5C0.501562 22.5 0 21.9984 0 21.375V18.75V16.5V12.75C0 11.0813 0.904687 9.62813 2.25469 8.85ZM19.5 10.5H4.5C3.25781 10.5 2.25 11.5078 2.25 12.75V16.5H21.75V12.75C21.75 11.5078 20.7422 10.5 19.5 10.5ZM5.25 12C5.64782 12 6.02936 12.158 6.31066 12.4393C6.59196 12.7206 6.75 13.1022 6.75 13.5C6.75 13.8978 6.59196 14.2794 6.31066 14.5607C6.02936 14.842 5.64782 15 5.25 15C4.85218 15 4.47064 14.842 4.18934 14.5607C3.90804 14.2794 3.75 13.8978 3.75 13.5C3.75 13.1022 3.90804 12.7206 4.18934 12.4393C4.47064 12.158 4.85218 12 5.25 12ZM17.25 13.5C17.25 13.1022 17.408 12.7206 17.6893 12.4393C17.9706 12.158 18.3522 12 18.75 12C19.1478 12 19.5294 12.158 19.8107 12.4393C20.092 12.7206 20.25 13.1022 20.25 13.5C20.25 13.8978 20.092 14.2794 19.8107 14.5607C19.5294 14.842 19.1478 15 18.75 15C18.3522 15 17.9706 14.842 17.6893 14.5607C17.408 14.2794 17.25 13.8978 17.25 13.5Z" fill="#A4A6A8"/>
</g>
<defs>
<clipPath id="clip0_5397_3162">
<rect width="24" height="24" fill="white"/>
</clipPath>
</defs>
</svg>
