<svg width="30" height="24" viewBox="0 0 30 24" fill="none" xmlns="http://www.w3.org/2000/svg">
<path d="M19.875 4.125C19.875 4.74844 19.3734 5.25 18.75 5.25H15.375V6.75H18.5906C19.1812 6.75 19.7625 6.92344 20.2547 7.25156L22.6641 8.85938C23.4984 9.41719 24 10.3547 24 11.3578V18C24 19.6547 22.6547 21 21 21H11.9438C11.0344 21 10.1719 20.5875 9.6 19.875L8.1 18H6.75C5.09531 18 3.75 16.6547 3.75 15V13.125H2.25V16.5C2.25 17.1234 1.74844 17.625 1.125 17.625C0.501562 17.625 0 17.1234 0 16.5V7.5C0 6.87656 0.501562 6.375 1.125 6.375C1.74844 6.375 2.25 6.87656 2.25 7.5V10.875H3.75V9.75C3.75 8.09531 5.09531 6.75 6.75 6.75H7.5H9H13.125V5.25H9.75C9.12656 5.25 8.625 4.74844 8.625 4.125C8.625 3.50156 9.12656 3 9.75 3H18.75C19.3734 3 19.875 3.50156 19.875 4.125ZM13.5 10.5C13.8978 10.5 14.2794 10.658 14.5607 10.9393C14.842 11.2206 15 11.6022 15 12C15 12.3978 14.842 12.7794 14.5607 13.0607C14.2794 13.342 13.8978 13.5 13.5 13.5C13.1022 13.5 12.7206 13.342 12.4393 13.0607C12.158 12.7794 12 12.3978 12 12C12 11.6022 12.158 11.2206 12.4393 10.9393C12.7206 10.658 13.1022 10.5 13.5 10.5ZM7.5 12C7.5 11.6022 7.65804 11.2206 7.93934 10.9393C8.22064 10.658 8.60218 10.5 9 10.5C9.39782 10.5 9.77936 10.658 10.0607 10.9393C10.342 11.2206 10.5 11.6022 10.5 12C10.5 12.3978 10.342 12.7794 10.0607 13.0607C9.77936 13.342 9.39782 13.5 9 13.5C8.60218 13.5 8.22064 13.342 7.93934 13.0607C7.65804 12.7794 7.5 12.3978 7.5 12ZM18 10.5C18.3978 10.5 18.7794 10.658 19.0607 10.9393C19.342 11.2206 19.5 11.6022 19.5 12C19.5 12.3978 19.342 12.7794 19.0607 13.0607C18.7794 13.342 18.3978 13.5 18 13.5C17.6022 13.5 17.2206 13.342 16.9393 13.0607C16.658 12.7794 16.5 12.3978 16.5 12C16.5 11.6022 16.658 11.2206 16.9393 10.9393C17.2206 10.658 17.6022 10.5 18 10.5ZM8.1 15.75C8.78438 15.75 9.43125 16.0594 9.85781 16.5938L11.3578 18.4688C11.4984 18.6469 11.7141 18.75 11.9438 18.75H21C21.4125 18.75 21.75 18.4125 21.75 18V11.3578C21.75 11.1094 21.6234 10.875 21.4172 10.7344L19.0078 9.12656C18.8859 9.04219 18.7406 9 18.5906 9H9H7.5H6.75C6.3375 9 6 9.3375 6 9.75V15C6 15.4125 6.3375 15.75 6.75 15.75H8.1ZM27 9H28.5C29.3297 9 30 9.67031 30 10.5V19.5C30 20.3297 29.3297 21 28.5 21H27C26.1703 21 25.5 20.3297 25.5 19.5V10.5C25.5 9.67031 26.1703 9 27 9Z" fill="#A4A6A8"/>
</svg>
