<svg width="10" height="17" viewBox="0 0 10 17" fill="none" xmlns="http://www.w3.org/2000/svg">
<path d="M9.53024 15.4694C9.59992 15.539 9.6552 15.6218 9.69291 15.7128C9.73062 15.8039 9.75003 15.9014 9.75003 16C9.75003 16.0985 9.73062 16.1961 9.69291 16.2872C9.6552 16.3782 9.59992 16.4609 9.53024 16.5306C9.46056 16.6003 9.37783 16.6556 9.28679 16.6933C9.19574 16.731 9.09816 16.7504 8.99961 16.7504C8.90107 16.7504 8.80349 16.731 8.71244 16.6933C8.6214 16.6556 8.53867 16.6003 8.46899 16.5306L0.968988 9.03061C0.899256 8.96096 0.843937 8.87824 0.806194 8.7872C0.768451 8.69615 0.749023 8.59855 0.749023 8.49999C0.749023 8.40143 0.768451 8.30383 0.806194 8.21278C0.843937 8.12174 0.899256 8.03902 0.968988 7.96936L8.46899 0.469365C8.60972 0.328634 8.80059 0.249573 8.99961 0.249573C9.19864 0.249573 9.38951 0.328634 9.53024 0.469365C9.67097 0.610095 9.75003 0.800967 9.75003 0.99999C9.75003 1.19901 9.67097 1.38988 9.53024 1.53061L2.55993 8.49999L9.53024 15.4694Z" fill="#808080"/>
</svg>
