<svg width="24" height="24" viewBox="0 0 24 24" fill="none" xmlns="http://www.w3.org/2000/svg">
<g clip-path="url(#clip0_5397_3166)">
<path d="M12 2.25C12.4125 2.25 12.75 2.5875 12.75 3V9H3.75V3C3.75 2.5875 4.0875 2.25 4.5 2.25H12ZM12.75 11.25V21.75H3.75V11.25H12.75ZM1.5 3V21.75H1.125C0.501562 21.75 0 22.2516 0 22.875C0 23.4984 0.501562 24 1.125 24H1.5H3.75H12.75H15H15.375C15.9984 24 16.5 23.4984 16.5 22.875C16.5 22.2516 15.9984 21.75 15.375 21.75H15V14.25H15.375C16.4109 14.25 17.25 15.0891 17.25 16.125V17.625C17.25 19.4906 18.7594 21 20.625 21C22.4906 21 24 19.4906 24 17.625V7.30781C24 6.4125 23.6437 5.55469 23.0109 4.92188L19.5469 1.45312C19.1063 1.0125 18.3938 1.0125 17.9578 1.45312C17.5219 1.89375 17.5172 2.60625 17.9578 3.04219L19.5047 4.58906V7.5C19.5047 8.89688 20.4609 10.0734 21.7547 10.4062V17.625C21.7547 18.2484 21.2531 18.75 20.6297 18.75C20.0063 18.75 19.5047 18.2484 19.5047 17.625V16.125C19.5047 13.8469 17.6578 12 15.3797 12H15.0047V3C15.0047 1.34531 13.6594 0 12.0047 0H4.5C2.84531 0 1.5 1.34531 1.5 3Z" fill="#A4A6A8"/>
</g>
<defs>
<clipPath id="clip0_5397_3166">
<rect width="24" height="24" fill="white"/>
</clipPath>
</defs>
</svg>
