<svg width="24" height="24" viewBox="0 0 24 24" fill="none" xmlns="http://www.w3.org/2000/svg">
<g clip-path="url(#clip0_5397_3278)">
<path d="M12 2.25C14.5859 2.25 17.0658 3.27723 18.8943 5.10571C20.7228 6.93419 21.75 9.41414 21.75 12C21.75 14.5859 20.7228 17.0658 18.8943 18.8943C17.0658 20.7228 14.5859 21.75 12 21.75C9.41414 21.75 6.93419 20.7228 5.10571 18.8943C3.27723 17.0658 2.25 14.5859 2.25 12C2.25 9.41414 3.27723 6.93419 5.10571 5.10571C6.93419 3.27723 9.41414 2.25 12 2.25ZM12 24C15.1826 24 18.2348 22.7357 20.4853 20.4853C22.7357 18.2348 24 15.1826 24 12C24 8.8174 22.7357 5.76516 20.4853 3.51472C18.2348 1.26428 15.1826 0 12 0C8.8174 0 5.76516 1.26428 3.51472 3.51472C1.26428 5.76516 0 8.8174 0 12C0 15.1826 1.26428 18.2348 3.51472 20.4853C5.76516 22.7357 8.8174 24 12 24ZM14.625 16.5C14.625 15.4547 14.0109 14.55 13.125 14.1281V5.625C13.125 5.00156 12.6234 4.5 12 4.5C11.3766 4.5 10.875 5.00156 10.875 5.625V14.1281C9.98906 14.55 9.375 15.4547 9.375 16.5C9.375 17.9484 10.5516 19.125 12 19.125C13.4484 19.125 14.625 17.9484 14.625 16.5ZM7.5 9C7.89782 9 8.27936 8.84196 8.56066 8.56066C8.84196 8.27936 9 7.89782 9 7.5C9 7.10218 8.84196 6.72064 8.56066 6.43934C8.27936 6.15804 7.89782 6 7.5 6C7.10218 6 6.72064 6.15804 6.43934 6.43934C6.15804 6.72064 6 7.10218 6 7.5C6 7.89782 6.15804 8.27936 6.43934 8.56066C6.72064 8.84196 7.10218 9 7.5 9ZM6.75 12C6.75 11.6022 6.59196 11.2206 6.31066 10.9393C6.02936 10.658 5.64782 10.5 5.25 10.5C4.85218 10.5 4.47064 10.658 4.18934 10.9393C3.90804 11.2206 3.75 11.6022 3.75 12C3.75 12.3978 3.90804 12.7794 4.18934 13.0607C4.47064 13.342 4.85218 13.5 5.25 13.5C5.64782 13.5 6.02936 13.342 6.31066 13.0607C6.59196 12.7794 6.75 12.3978 6.75 12ZM18.75 13.5C19.1478 13.5 19.5294 13.342 19.8107 13.0607C20.092 12.7794 20.25 12.3978 20.25 12C20.25 11.6022 20.092 11.2206 19.8107 10.9393C19.5294 10.658 19.1478 10.5 18.75 10.5C18.3522 10.5 17.9706 10.658 17.6893 10.9393C17.408 11.2206 17.25 11.6022 17.25 12C17.25 12.3978 17.408 12.7794 17.6893 13.0607C17.9706 13.342 18.3522 13.5 18.75 13.5ZM18 7.5C18 7.10218 17.842 6.72064 17.5607 6.43934C17.2794 6.15804 16.8978 6 16.5 6C16.1022 6 15.7206 6.15804 15.4393 6.43934C15.158 6.72064 15 7.10218 15 7.5C15 7.89782 15.158 8.27936 15.4393 8.56066C15.7206 8.84196 16.1022 9 16.5 9C16.8978 9 17.2794 8.84196 17.5607 8.56066C17.842 8.27936 18 7.89782 18 7.5Z" fill="#A4A6A8"/>
</g>
<defs>
<clipPath id="clip0_5397_3278">
<rect width="24" height="24" fill="white"/>
</clipPath>
</defs>
</svg>
