<svg width="121" height="120" viewBox="0 0 121 120" fill="none" xmlns="http://www.w3.org/2000/svg">
<g id="green-model-42d042c1 1" clip-path="url(#clip0_3965_1008)">
<path id="Vector" opacity="0.2" d="M60.56 0H58.8784C26.6369 0 0.5 26.8629 0.5 60C0.5 93.1371 26.6369 120 58.8784 120H60.56C92.8015 120 118.938 93.1371 118.938 60C118.938 26.8629 92.8015 0 60.56 0Z" fill="#6A7B76"/>
<path id="Vector_2" d="M90.7441 41.8334H86.609V37.5834C86.609 36.4564 86.1731 35.3747 85.398 34.578C84.6225 33.7814 83.5701 33.3334 82.4739 33.3334H32.8519C31.7553 33.3334 30.703 33.781 29.9278 34.578C29.1526 35.375 28.7168 36.4564 28.7168 37.5834V61.6667C28.7168 62.449 29.334 63.0834 30.0952 63.0834C30.8564 63.0834 31.4736 62.449 31.4736 61.6667V37.5834C31.4736 36.801 32.0908 36.1667 32.8519 36.1667H82.4739C82.8394 36.1667 83.1903 36.316 83.4488 36.5814C83.707 36.847 83.8523 37.2077 83.8523 37.5834V71.5837C83.8523 71.9594 83.707 72.3197 83.4488 72.5854C83.1903 72.851 82.8394 73.0004 82.4739 73.0004H52.1492C51.388 73.0004 50.7709 73.6347 50.7709 74.417C50.7709 75.1994 51.388 75.8337 52.1492 75.8337H82.4739C83.5704 75.8337 84.6229 75.3857 85.398 74.589C86.1731 73.792 86.609 72.7104 86.609 71.5837V67.3337H92.1225V80.0837C92.1225 80.4594 91.9772 80.82 91.7187 81.0854C91.4606 81.351 91.1097 81.5004 90.7441 81.5004H50.7709C50.0097 81.5004 49.3925 82.1347 49.3925 82.917C49.3925 83.6994 50.0097 84.3337 50.7709 84.3337H90.7441C91.8407 84.3337 92.8931 83.886 93.6683 83.089C94.4434 82.292 94.8793 81.2107 94.8793 80.0837V46.0837C94.8793 44.9564 94.4437 43.875 93.6683 43.0784C92.8928 42.2814 91.8407 41.8334 90.7441 41.8334ZM90.7441 44.6667C91.1097 44.6667 91.4603 44.816 91.7187 45.0817C91.9772 45.3474 92.1225 45.7077 92.1225 46.0834V56H86.609V44.6667H90.7441ZM86.609 64.5V58.8334H92.1225V64.5H86.609Z" fill="#57736B"/>
<path id="Vector_3" d="M68.6898 53.1641H57.6628C56.9016 53.1641 56.2844 53.7984 56.2844 54.5807C56.2844 55.3631 56.9016 55.9974 57.6628 55.9974H68.6898C69.451 55.9974 70.0682 55.3631 70.0682 54.5807C70.0682 53.7984 69.451 53.1641 68.6898 53.1641Z" fill="#57736B"/>
<path id="Vector_4" d="M79.7156 55.9974C80.4768 55.9974 81.094 55.3631 81.094 54.5807C81.094 53.7984 80.4768 53.1641 79.7156 53.1641H74.2021C73.4409 53.1641 72.8237 53.7984 72.8237 54.5807C72.8237 55.3631 73.4409 55.9974 74.2021 55.9974H79.7156Z" fill="#57736B"/>
<path id="Vector_5" d="M45.2561 54.5807C45.2561 54.9564 45.4014 55.3171 45.6599 55.5827C45.9184 55.8481 46.269 55.9974 46.6345 55.9974H52.148C52.9092 55.9974 53.5264 55.3631 53.5264 54.5807C53.5264 53.7984 52.9092 53.1641 52.148 53.1641H46.6345C45.8733 53.1641 45.2561 53.7984 45.2561 54.5807Z" fill="#57736B"/>
<path id="Vector_6" d="M35.6095 55.9974H41.123C41.8842 55.9974 42.5013 55.3631 42.5013 54.5807C42.5013 53.7984 41.8842 53.1641 41.123 53.1641H35.6095C34.8483 53.1641 34.2311 53.7984 34.2311 54.5807C34.2311 55.3631 34.8483 55.9974 35.6095 55.9974Z" fill="#57736B"/>
<path id="Vector_7" d="M43.8797 38.9974H38.3662C37.2697 38.9974 36.2172 39.4451 35.4421 40.2421C34.667 41.0391 34.2311 42.1204 34.2311 43.2474V46.0808C34.2311 47.2078 34.6666 48.2894 35.4421 49.0861C36.2176 49.8828 37.2697 50.3308 38.3662 50.3308H43.8797C44.9763 50.3308 46.0287 49.8831 46.8038 49.0861C47.579 48.2891 48.0149 47.2078 48.0149 46.0808V43.2474C48.0149 42.1204 47.579 41.0388 46.8038 40.2421C46.0284 39.4454 44.9759 38.9974 43.8797 38.9974ZM45.2581 46.0808C45.2581 46.4564 45.1128 46.8171 44.8543 47.0828C44.5958 47.3484 44.2452 47.4974 43.8797 47.4974H38.3662C37.605 47.4974 36.9878 46.8631 36.9878 46.0808V43.2474C36.9878 42.4651 37.605 41.8308 38.3662 41.8308H43.8797C44.2452 41.8308 44.5958 41.9801 44.8543 42.2458C45.1128 42.5114 45.2581 42.8718 45.2581 43.2474V46.0808Z" fill="#57736B"/>
<path id="Vector_8" d="M35.6082 64.4988C32.3179 64.4988 29.1624 65.8421 26.8364 68.2334C24.5096 70.6241 23.2028 73.8671 23.2028 77.2488C23.2028 80.6308 24.5098 83.8738 26.8364 86.2644C29.1624 88.6558 32.3179 89.9991 35.6082 89.9991C38.8984 89.9991 42.0541 88.6558 44.3802 86.2644C46.7069 83.8738 48.0139 80.6308 48.0139 77.2488C48.01 73.8684 46.7017 70.6278 44.3763 68.2371C42.0502 65.8471 38.8975 64.5028 35.6082 64.4988ZM35.6082 87.1658C33.0489 87.1658 30.595 86.1208 28.7858 84.2608C26.9761 82.4014 25.9595 79.8794 25.9595 77.2488C25.9595 74.6184 26.9761 72.0964 28.7858 70.2368C30.5949 68.3768 33.0489 67.3321 35.6082 67.3321C38.1677 67.3321 40.6216 68.3771 42.4307 70.2368C44.2404 72.0961 45.2568 74.6184 45.2568 77.2488C45.2539 79.8778 44.2368 82.3991 42.4277 84.2578C40.619 86.1171 38.1661 87.1624 35.6082 87.1658Z" fill="#57736B"/>
<path id="Vector_9" d="M68.6885 58.8347C66.8966 58.8297 65.2137 59.7207 64.1768 61.2227C63.14 62.7257 62.8786 64.6521 63.4753 66.3887C64.0721 68.1254 65.4531 69.4561 67.1778 69.9557C68.9032 70.4554 70.7567 70.0624 72.1481 68.9014C73.1172 69.7161 74.3288 70.1631 75.5804 70.1681C77.5503 70.1681 79.3705 69.0877 80.3558 67.3347C81.3401 65.5817 81.3401 63.4211 80.3558 61.6681C79.3705 59.9151 77.55 58.8347 75.5804 58.8347C74.3288 58.8397 73.1172 59.2871 72.1481 60.1014C71.1702 59.2837 69.9488 58.8367 68.6885 58.8347ZM65.9318 64.5014C65.9318 63.7501 66.2223 63.0291 66.7393 62.4981C67.256 61.9667 67.9575 61.6681 68.6885 61.6681C69.3475 61.6664 69.9845 61.9111 70.4804 62.3567C69.9255 63.7301 69.9255 65.2744 70.4804 66.6481C69.9839 67.0927 69.3472 67.3367 68.6885 67.3347C67.9575 67.3347 67.256 67.0364 66.7393 66.5051C66.2223 65.9737 65.9318 65.2527 65.9318 64.5014ZM75.5807 61.6681C76.3118 61.6681 77.0133 61.9667 77.5299 62.4981C78.0469 63.0291 78.3375 63.7501 78.3375 64.5014C78.3375 65.2527 78.0469 65.9737 77.5299 66.5051C77.0133 67.0364 76.3118 67.3347 75.5807 67.3347C74.8494 67.3347 74.1479 67.0364 73.6312 66.5051C73.1142 65.9737 72.8237 65.2527 72.8237 64.5014C72.8237 63.7501 73.1142 63.0291 73.6312 62.4981C74.1479 61.9667 74.8494 61.6681 75.5807 61.6681Z" fill="#57736B"/>
<path id="Vector_10" d="M39.283 72.2123L34.7032 79.2743L31.7562 76.2467C31.2153 75.7097 30.3556 75.718 29.8239 76.2643C29.2922 76.811 29.2843 77.6943 29.8067 78.2503L33.9417 82.5003C34.2002 82.766 34.5511 82.9153 34.9166 82.9153C34.9627 82.918 35.0084 82.918 35.0544 82.9153C35.4647 82.8737 35.8357 82.6447 36.0647 82.2917L41.5782 73.7917C41.7887 73.4793 41.8682 73.0933 41.7988 72.7197C41.729 72.3467 41.5169 72.0177 41.2091 71.807C40.9014 71.5963 40.5242 71.5213 40.1625 71.599C39.8006 71.6767 39.4844 71.9007 39.2849 72.2207L39.283 72.2123Z" fill="#57736B"/>
</g>
<defs>
<clipPath id="clip0_3965_1008">
<rect width="120" height="120" fill="white" transform="translate(0.5)"/>
</clipPath>
</defs>
</svg>
