<svg width="53" height="52" viewBox="0 0 53 52" fill="none" xmlns="http://www.w3.org/2000/svg">
<circle cx="26.5" cy="26" r="26" fill="#781984"/>
<g clip-path="url(#clip0_4889_450)">
<path d="M45.6278 29.8242C45.4965 29.7825 45.3711 29.8657 45.3515 29.9424C45.1817 30.5732 44.9658 30.9257 44.4589 30.8857C43.5226 30.7647 43.5725 28.7893 43.5725 27.9151C43.5725 24.6226 43.6729 20.6307 43.6729 20.4746C43.6729 20.3421 43.5267 20.2455 42.9682 20.1075C42.637 20.0261 42.457 19.9966 42.3692 19.9966C42.1798 19.9966 42.0042 20.1516 42.0042 20.3459V24.6812C41.5869 24.2225 41.0375 23.936 40.3541 23.9276C36.9849 23.8852 36.4521 31.3829 39.8476 31.8495C41.0025 32.0079 41.8448 31.4031 42.3669 30.4667C42.7625 31.4932 43.3913 31.7917 43.8217 31.8793C44.1284 31.9405 45.1572 31.8387 45.6526 30.8C45.8303 30.4306 45.9252 29.9202 45.6278 29.8242ZM40.6885 30.8922C38.4441 30.8922 38.9533 25.163 40.7422 25.1863C41.5005 25.1962 41.9613 26.1577 42.0045 27.4158C42.0727 29.456 41.7672 30.8922 40.6885 30.8922ZM36.5711 23.9351C35.2117 24.1525 34.6284 26.036 34.6284 26.2878V24.6468C34.6284 24.5149 34.4819 24.4186 33.9249 24.2806C33.5923 24.1992 33.4117 24.1689 33.325 24.1689C33.1365 24.1689 32.9588 24.3247 32.9588 24.5184V28.4277C32.9536 28.4919 32.9477 28.5556 32.9419 28.6212C32.8401 29.7417 32.7391 30.863 32.005 30.863C31.0325 30.863 31.3245 28.8252 31.3371 27.9507C31.3774 25.2438 31.4369 24.641 31.4369 24.6351C31.4369 24.503 31.291 24.4064 30.7328 24.2687C30.4013 24.1867 30.2207 24.1566 30.1332 24.1566C29.9447 24.1566 29.7682 24.3124 29.7682 24.5062V24.7676C29.3387 24.2581 28.7618 23.9363 28.0358 23.9273C25.7074 23.8981 24.7328 27.4771 25.4766 29.8412C25.3657 30.4673 25.139 30.9318 24.5438 30.8857C23.6077 30.7647 23.6576 28.7893 23.6576 27.9151C23.6576 24.6226 23.7577 20.481 23.7577 20.4746C23.7577 20.3421 23.6112 20.2455 23.053 20.1075C22.7219 20.0261 22.5407 19.9966 22.454 19.9966C22.2646 19.9966 22.0881 20.1516 22.0881 20.3459V27.5358C22.0653 28.2521 22.0986 28.8535 22.171 29.358C22.0189 30.2205 21.7029 30.9318 21.0718 30.8855C20.1358 30.7644 20.186 28.789 20.186 27.9148C20.186 24.6223 20.2857 20.4807 20.2857 20.4743C20.2857 20.3418 20.1396 20.2452 19.5814 20.1072C19.2496 20.0258 19.0687 19.9963 18.9815 19.9963C18.793 19.9963 18.6159 20.1513 18.6159 20.3456V27.6353C18.5067 31.1352 19.7185 31.7844 20.4296 31.8743C20.7867 31.919 22.0216 31.8104 22.4175 30.4014C22.8074 31.5125 23.456 31.8361 23.9062 31.8787C24.1954 31.9058 25.3511 31.818 25.8142 30.6223C26.1935 31.2797 26.7602 31.7456 27.5305 31.8489C28.653 31.9989 29.4805 31.4506 30.0092 30.5823C30.2829 31.5102 30.7474 31.7748 31.2411 31.874C31.6099 31.9475 32.4552 31.8796 32.9585 31.0602V31.462C32.9585 31.5948 33.0105 31.6911 33.5681 31.8294C33.8993 31.9108 34.18 31.9405 34.2663 31.9405C34.4566 31.9405 34.6281 31.7853 34.6281 31.5916V29.5908C34.6281 28.7382 35.1688 25.612 36.5017 25.5149C36.5866 25.509 36.7745 25.5239 36.9067 25.5694C37.9609 25.933 37.9396 23.7163 36.5711 23.9351ZM28.3711 30.8922C26.1279 30.8525 26.6353 25.163 28.4245 25.1863C29.2841 25.1974 29.6949 26.4337 29.7081 27.9303C29.72 29.4011 29.4347 30.9103 28.3711 30.8922ZM15.1188 23.9267C11.7505 23.8844 11.2162 31.3024 14.6132 31.8486C18.8461 32.5276 19.174 23.9769 15.1188 23.9267ZM15.4529 30.8898C13.21 30.8469 13.8218 25.3736 15.5075 25.1837C17.3921 24.9721 17.6538 30.931 15.4529 30.8898ZM10.8701 20.1081C10.539 20.0267 10.3586 19.9972 10.2717 19.9972C10.0826 19.9972 9.90609 20.1522 9.90609 20.3465V25.0754C8.86646 25.0468 7.94121 25.0856 6.9045 25.233C6.9045 25.233 6.89954 20.5227 6.89954 20.4749C6.89954 20.3424 6.75277 20.2458 6.19459 20.1078C5.86254 20.0264 5.68192 19.9969 5.59555 19.9969C5.40619 19.9969 5.22995 20.1519 5.22995 20.3462V25.5566C5.11673 25.5831 4.58481 25.6978 4.2869 25.7941C3.98957 25.891 3.94785 26.1101 4.04764 26.4112C4.20753 26.8991 4.74471 27.48 5.06451 27.3464C5.14358 27.3149 5.23111 27.2901 5.23111 27.2901C5.23432 28.5605 5.23724 29.4604 5.23724 29.4604L5.2387 31.4644C5.2387 31.5974 5.28597 31.694 5.84415 31.8311C6.17591 31.9131 6.45574 31.9429 6.54269 31.9429C6.73147 31.9429 6.9045 31.7877 6.9045 31.5933V26.7961C8.15421 26.5075 9.11915 26.4299 9.90609 26.3721V31.4649C9.90609 31.598 9.95774 31.6954 10.5159 31.8332C10.8465 31.9146 11.1275 31.9452 11.2147 31.9452C11.4032 31.9452 11.5754 31.7891 11.5754 31.5951V20.4749C11.5754 20.3424 11.4292 20.2458 10.8701 20.1081Z" fill="white"/>
<path d="M48.0455 29.2608C47.3972 29.1485 46.7713 29.6927 46.649 30.3976C46.5262 31.1032 46.9519 31.7655 47.6008 31.8784C48.2469 31.9893 48.8713 31.5085 48.9938 30.8029C49.1155 30.0991 48.6918 29.3738 48.0455 29.2608Z" fill="#F05B24"/>
</g>
<defs>
<clipPath id="clip0_4889_450">
<rect width="45.0145" height="11.948" fill="white" transform="translate(4 20)"/>
</clipPath>
</defs>
</svg>
