<svg width="14" height="15" viewBox="0 0 14 15" fill="none" xmlns="http://www.w3.org/2000/svg">
<path d="M13.1163 5.92625C12.8806 5.68 12.6369 5.42625 12.545 5.20312C12.46 4.99875 12.455 4.66 12.45 4.33187C12.4406 3.72187 12.4306 3.03062 11.95 2.55C11.4694 2.06937 10.7781 2.05937 10.1681 2.05C9.84 2.045 9.50125 2.04 9.29688 1.955C9.07438 1.86312 8.82 1.61937 8.57375 1.38375C8.1425 0.969375 7.6525 0.5 7 0.5C6.3475 0.5 5.85812 0.969375 5.42625 1.38375C5.18 1.61937 4.92625 1.86312 4.70312 1.955C4.5 2.04 4.16 2.045 3.83187 2.05C3.22187 2.05937 2.53062 2.06937 2.05 2.55C1.56937 3.03062 1.5625 3.72187 1.55 4.33187C1.545 4.66 1.54 4.99875 1.455 5.20312C1.36312 5.42562 1.11937 5.68 0.88375 5.92625C0.469375 6.3575 0 6.8475 0 7.5C0 8.1525 0.469375 8.64187 0.88375 9.07375C1.11937 9.32 1.36312 9.57375 1.455 9.79688C1.54 10.0013 1.545 10.34 1.55 10.6681C1.55937 11.2781 1.56937 11.9694 2.05 12.45C2.53062 12.9306 3.22187 12.9406 3.83187 12.95C4.16 12.955 4.49875 12.96 4.70312 13.045C4.92562 13.1369 5.18 13.3806 5.42625 13.6163C5.8575 14.0306 6.3475 14.5 7 14.5C7.6525 14.5 8.14187 14.0306 8.57375 13.6163C8.82 13.3806 9.07375 13.1369 9.29688 13.045C9.50125 12.96 9.84 12.955 10.1681 12.95C10.7781 12.9406 11.4694 12.9306 11.95 12.45C12.4306 11.9694 12.4406 11.2781 12.45 10.6681C12.455 10.34 12.46 10.0013 12.545 9.79688C12.6369 9.57438 12.8806 9.32 13.1163 9.07375C13.5306 8.6425 14 8.1525 14 7.5C14 6.8475 13.5306 6.35812 13.1163 5.92625ZM9.85375 6.35375L6.35375 9.85375C6.30731 9.90024 6.25217 9.93712 6.19147 9.96228C6.13077 9.98744 6.06571 10.0004 6 10.0004C5.93429 10.0004 5.86923 9.98744 5.80853 9.96228C5.74783 9.93712 5.69269 9.90024 5.64625 9.85375L4.14625 8.35375C4.05243 8.25993 3.99972 8.13268 3.99972 8C3.99972 7.86732 4.05243 7.74007 4.14625 7.64625C4.24007 7.55243 4.36732 7.49972 4.5 7.49972C4.63268 7.49972 4.75993 7.55243 4.85375 7.64625L6 8.79313L9.14625 5.64625C9.19271 5.59979 9.24786 5.56294 9.30855 5.5378C9.36925 5.51266 9.4343 5.49972 9.5 5.49972C9.5657 5.49972 9.63075 5.51266 9.69145 5.5378C9.75214 5.56294 9.80729 5.59979 9.85375 5.64625C9.90021 5.6927 9.93705 5.74786 9.9622 5.80855C9.98734 5.86925 10.0003 5.9343 10.0003 6C10.0003 6.0657 9.98734 6.13075 9.9622 6.19145C9.93705 6.25214 9.90021 6.3073 9.85375 6.35375Z" fill="black"/>
</svg>
