<svg width="121" height="120" viewBox="0 0 121 120" fill="none" xmlns="http://www.w3.org/2000/svg">
<g id="purple-model-ff8ae39a 1" clip-path="url(#clip0_3313_3667)">
<path id="Vector" opacity="0.2" d="M60.56 0H58.8784C26.6369 0 0.5 26.8629 0.5 60C0.5 93.1371 26.6369 120 58.8784 120H60.56C92.8015 120 118.938 93.1371 118.938 60C118.938 26.8629 92.8015 0 60.56 0Z" fill="#BEB0ED"/>
<path id="Vector_2" d="M44.7674 47.5264C44.2565 47.089 43.4976 47.16 43.0721 47.6843L41.0642 50.1604C40.8991 50.364 40.6887 50.3824 40.5787 50.375C40.4681 50.3674 40.2622 50.322 40.1234 50.0983L39.7692 49.5267C39.4124 48.95 38.6684 48.7807 38.1077 49.1473C37.5469 49.514 37.3818 50.2787 37.7386 50.8547L38.0928 51.4264C38.611 52.2637 39.4611 52.78 40.4246 52.8437C40.4911 52.848 40.557 52.8503 40.6228 52.8503C41.5118 52.8503 42.3378 52.454 42.9132 51.744L44.9211 49.2684C45.3466 48.7434 45.2778 47.9637 44.7674 47.5264Z" fill="#725AC1"/>
<path id="Vector_3" d="M58.2693 49.4467H48.7624C48.0979 49.4467 47.5588 50.0007 47.5588 50.6837C47.5588 51.3667 48.0979 51.9207 48.7624 51.9207H58.2693C58.9339 51.9207 59.4729 51.3667 59.4729 50.6837C59.4729 50.0007 58.9342 49.4467 58.2693 49.4467Z" fill="#725AC1"/>
<path id="Vector_4" d="M44.7674 55.3647C44.2565 54.9274 43.4976 54.9987 43.0721 55.523L41.0642 57.9994C40.8991 58.203 40.6887 58.221 40.5787 58.214C40.4681 58.2064 40.2622 58.161 40.1234 57.9374L39.7692 57.3657C39.4124 56.789 38.6684 56.6197 38.1077 56.9864C37.5469 57.353 37.3818 58.1177 37.7386 58.6937L38.0928 59.2654C38.611 60.1027 39.4611 60.619 40.4246 60.6827C40.4911 60.687 40.557 60.6894 40.6228 60.6894C41.5118 60.6894 42.3378 60.293 42.9132 59.583L44.9211 57.1067C45.3466 56.582 45.2778 55.802 44.7674 55.3647Z" fill="#725AC1"/>
<path id="Vector_5" d="M58.2693 57.2787H48.7624C48.0979 57.2787 47.5588 57.8327 47.5588 58.5157C47.5588 59.1987 48.0979 59.7527 48.7624 59.7527H58.2693C58.9339 59.7527 59.4729 59.1987 59.4729 58.5157C59.4729 57.8324 58.9342 57.2787 58.2693 57.2787Z" fill="#725AC1"/>
<path id="Vector_6" d="M44.7674 63.197C44.2565 62.7594 43.4976 62.8307 43.0721 63.355L41.0642 65.8313C40.8991 66.035 40.6887 66.0534 40.5787 66.046C40.4681 66.0384 40.2622 65.993 40.1234 65.7694L39.7692 65.1977C39.4124 64.6213 38.6684 64.4517 38.1077 64.8183C37.5469 65.185 37.3818 65.9497 37.7386 66.5257L38.0928 67.0974C38.611 67.9347 39.4611 68.451 40.4246 68.5147C40.4911 68.519 40.557 68.5214 40.6228 68.5214C41.5118 68.5214 42.3378 68.125 42.9132 67.415L44.9211 64.9387C45.3466 64.4144 45.2778 63.6344 44.7674 63.197Z" fill="#725AC1"/>
<path id="Vector_7" d="M58.2693 65.1172H48.7624C48.0979 65.1172 47.5588 65.6712 47.5588 66.3542C47.5588 67.0372 48.0979 67.5912 48.7624 67.5912H58.2693C58.9339 67.5912 59.4729 67.0372 59.4729 66.3542C59.4729 65.6712 58.9342 65.1172 58.2693 65.1172Z" fill="#725AC1"/>
<path id="Vector_8" d="M90.2665 68.6176L87.2662 68.206C86.9341 66.901 86.4272 65.6593 85.7522 64.4986L87.536 61.9333C87.8779 61.442 87.8237 60.7676 87.4073 60.3403L84.7533 57.6126C84.3275 57.175 83.6509 57.1276 83.1719 57.505L80.7482 59.4086C79.6436 58.7466 78.465 58.2493 77.2293 57.9216L76.8246 54.803C76.7451 54.188 76.2349 53.7296 75.632 53.7296H72.1296L72.129 33.292C72.129 31.5974 70.7873 30.2181 69.1384 30.2181H60.452V29.7406C60.4533 28.9193 60.1416 28.1475 59.577 27.567C59.0114 26.9856 58.2602 26.6666 57.4624 26.6666H44.3558C42.7069 26.6666 41.3649 28.0458 41.3649 29.7406V30.2181H32.6801C31.0312 30.2181 29.6892 31.5973 29.6892 33.2921V80.3136C29.6892 82.0083 31.0311 83.3876 32.6801 83.3876H59.9224L62.4525 85.988C62.8689 86.416 63.5234 86.4716 64.0024 86.1203L66.5526 84.249C67.6864 84.9443 68.9007 85.465 70.1779 85.804L70.6919 88.9683C70.7882 89.5646 71.2903 90.001 71.8786 90.001H75.6311C76.2343 90.001 76.7445 89.542 76.8239 88.9276L77.2283 85.809C78.4909 85.4736 79.6932 84.9616 80.8199 84.278L83.3292 86.121C83.8073 86.4723 84.463 86.4166 84.8792 85.9883L87.5331 83.261C87.9602 82.823 88.005 82.1276 87.6379 81.6356L85.7967 79.159C86.4645 77.9926 86.9639 76.7483 87.2863 75.4393L90.3048 74.9223C90.885 74.8233 91.3108 74.3073 91.3108 73.7026V69.8446C91.3108 69.2243 90.8642 68.6993 90.2665 68.6176ZM60.4517 32.692H69.1378C69.4595 32.692 69.7215 32.9614 69.7215 33.2919V58.0563C69.1618 58.226 68.6117 58.4323 68.0775 58.675V37.456C68.0775 35.7613 66.7355 34.382 65.0866 34.382H60.4517V32.692ZM43.772 29.7404C43.772 29.4099 44.0341 29.1405 44.3555 29.1405H57.4624C57.6716 29.1405 57.8101 29.2505 57.8749 29.3163C57.9385 29.3817 58.0449 29.5239 58.0449 29.7404V36.1083C58.0449 36.4386 57.7825 36.7083 57.4611 36.7083H44.3555C44.0341 36.7083 43.7717 36.4386 43.7717 36.1083L43.772 29.7404ZM41.4538 36.8556C41.78 38.1903 42.957 39.1826 44.3558 39.1826H57.4614C58.8599 39.1826 60.0369 38.1903 60.3632 36.8556H65.0869C65.4087 36.8556 65.6707 37.1253 65.6707 37.4556V58.6916L64.1603 57.5053C63.6813 57.128 63.0048 57.175 62.5789 57.6133L59.925 60.3406C59.5086 60.7686 59.4544 61.4416 59.7962 61.9336L61.6267 64.5686C60.9745 65.7053 60.4835 66.92 60.1585 68.1943L57.0654 68.6183C56.467 68.7 56.0208 69.2243 56.0208 69.8443V73.7023C56.0208 74.307 56.4469 74.823 57.0272 74.922L60.1384 75.4553C60.2707 75.9773 60.4258 76.493 60.6139 76.9966L36.7309 76.9963C36.4095 76.9963 36.1472 76.7266 36.1472 76.3963V37.4563C36.1472 37.126 36.4095 36.8566 36.7309 36.8566L41.4538 36.8556ZM60.2286 80.913H32.6794C32.3578 80.913 32.0956 80.6436 32.0956 80.313V33.2915C32.0956 32.9611 32.3578 32.6916 32.6794 32.6916H41.3642V34.3813H36.7306C35.0817 34.3813 33.7397 35.7606 33.7397 37.4553V76.395C33.7397 78.0896 35.0817 79.469 36.7306 79.469H61.3024L60.2286 80.913ZM88.9037 72.654L86.0908 73.1353C85.594 73.219 85.2002 73.614 85.1065 74.1233C84.8117 75.7066 84.2159 77.191 83.3338 78.532C83.2001 78.7373 83.1278 78.9786 83.1278 79.226C83.1278 79.498 83.2147 79.7613 83.3759 79.977L85.0864 82.2763L83.8981 83.4973L81.5607 81.7806C81.153 81.4813 80.6052 81.4726 80.1888 81.762C78.8876 82.6623 77.4518 83.274 75.9197 83.5756C75.4105 83.676 75.0216 84.0986 74.9532 84.627L74.5767 87.526H72.8976L72.4189 84.5773C72.3372 84.0686 71.9555 83.6666 71.4635 83.5676C69.9252 83.257 68.4881 82.6413 67.1921 81.7333C66.7744 81.4426 66.226 81.449 65.8154 81.7493L63.4335 83.497L62.2455 82.276L64.0037 79.9106C64.318 79.49 64.3348 78.9113 64.0485 78.471C63.874 78.205 63.7069 77.923 63.5503 77.6323C62.962 76.5413 62.5468 75.3653 62.3169 74.1366C62.2219 73.628 61.8294 73.235 61.3326 73.1506L58.4282 72.653V70.9263L61.3037 70.5316C61.8152 70.4623 62.2254 70.065 62.3253 69.5446C62.6227 67.9896 63.2114 66.5326 64.0751 65.214C64.3546 64.786 64.3472 64.2243 64.0559 63.805L62.348 61.347L63.536 60.126L65.8261 61.9243C66.2341 62.246 66.7965 62.2646 67.2249 61.9713C68.4959 61.0896 69.9463 60.4596 71.4528 60.1626C71.9496 60.0673 72.3362 59.663 72.4189 59.151L72.898 56.2023H74.577L74.9535 59.1016C75.0223 59.63 75.4108 60.0526 75.9197 60.153C77.4349 60.4526 78.8591 61.0526 80.1476 61.9376C80.576 62.232 81.1394 62.2133 81.5471 61.892L83.7953 60.1256L84.9833 61.3466L83.3198 63.739C83.0276 64.161 83.0218 64.726 83.3052 65.1553C84.1926 66.491 84.7952 67.972 85.0974 69.5553C85.196 70.0763 85.6076 70.4743 86.1191 70.5436L88.9027 70.9256L88.9037 72.654Z" fill="#725AC1"/>
<path id="Vector_9" d="M73.7088 66.0352C72.427 66.0352 71.1719 66.4868 70.173 67.3068C68.8157 68.4215 68.038 70.0825 68.038 71.8638C68.038 73.6448 68.8157 75.3062 70.173 76.4205C71.1719 77.2405 72.427 77.6922 73.7088 77.6922C76.8356 77.6922 79.3802 75.0772 79.3802 71.8632C79.3796 68.6502 76.8356 66.0352 73.7088 66.0352ZM73.7088 75.2185C72.9602 75.2185 72.2574 74.9662 71.6749 74.4888C70.894 73.8468 70.4448 72.8895 70.4448 71.8638C70.4448 70.8382 70.8933 69.8812 71.6749 69.2385C72.2574 68.7612 72.9602 68.5088 73.7088 68.5088C75.5081 68.5088 76.9731 70.0142 76.9731 71.8635C76.9728 73.7128 75.5081 75.2185 73.7088 75.2185Z" fill="#725AC1"/>
</g>
<defs>
<clipPath id="clip0_3313_3667">
<rect width="120" height="120" fill="white" transform="translate(0.5)"/>
</clipPath>
</defs>
</svg>
