<svg width="27" height="27" viewBox="0 0 27 27" fill="none" xmlns="http://www.w3.org/2000/svg">
<path d="M26.7075 25.2925L20.45 19.035C22.2672 16.8556 23.1742 14.0594 22.9823 11.2282C22.7904 8.39702 21.5144 5.74882 19.4197 3.83451C17.3249 1.92021 14.5728 0.887192 11.7359 0.950368C8.89887 1.01354 6.19547 2.16805 4.18804 4.1737C2.18061 6.17936 1.02372 8.88174 0.958035 11.7187C0.892352 14.5556 1.92294 17.3086 3.83539 19.405C5.74785 21.5014 8.39492 22.7798 11.2259 22.9742C14.0569 23.1686 16.8539 22.2641 19.035 20.4488L25.2925 26.7075C25.3854 26.8004 25.4957 26.8741 25.6171 26.9244C25.7385 26.9747 25.8686 27.0006 26 27.0006C26.1314 27.0006 26.2615 26.9747 26.3829 26.9244C26.5043 26.8741 26.6146 26.8004 26.7075 26.7075C26.8004 26.6146 26.8741 26.5043 26.9244 26.3829C26.9747 26.2615 27.0006 26.1314 27.0006 26C27.0006 25.8686 26.9747 25.7385 26.9244 25.6171C26.8741 25.4957 26.8004 25.3854 26.7075 25.2925ZM3 12C3 10.22 3.52784 8.47995 4.51677 6.99991C5.5057 5.51986 6.91131 4.36631 8.55585 3.68512C10.2004 3.00393 12.01 2.8257 13.7558 3.17297C15.5016 3.52024 17.1053 4.3774 18.364 5.63608C19.6226 6.89475 20.4798 8.4984 20.8271 10.2442C21.1743 11.9901 20.9961 13.7997 20.3149 15.4442C19.6337 17.0887 18.4802 18.4943 17.0001 19.4833C15.5201 20.4722 13.78 21 12 21C9.61386 20.9974 7.32621 20.0483 5.63896 18.3611C3.95171 16.6738 3.00264 14.3862 3 12Z" fill="#781984"/>
</svg>
