<svg width="16" height="17" viewBox="0 0 16 17" fill="none" xmlns="http://www.w3.org/2000/svg">
<g id="sliders-horizontal-bold 1">
<path id="Vector" d="M2.5 6.24998H4.37875C4.53387 6.68861 4.82116 7.06837 5.20105 7.33696C5.58094 7.60556 6.03475 7.74979 6.5 7.74979C6.96525 7.74979 7.41906 7.60556 7.79895 7.33696C8.17884 7.06837 8.46613 6.68861 8.62125 6.24998H13.5C13.6989 6.24998 13.8897 6.17097 14.0303 6.03031C14.171 5.88966 14.25 5.6989 14.25 5.49998C14.25 5.30107 14.171 5.11031 14.0303 4.96965C13.8897 4.829 13.6989 4.74998 13.5 4.74998H8.62125C8.46613 4.31136 8.17884 3.9316 7.79895 3.663C7.41906 3.39441 6.96525 3.25018 6.5 3.25018C6.03475 3.25018 5.58094 3.39441 5.20105 3.663C4.82116 3.9316 4.53387 4.31136 4.37875 4.74998H2.5C2.30109 4.74998 2.11032 4.829 1.96967 4.96965C1.82902 5.11031 1.75 5.30107 1.75 5.49998C1.75 5.6989 1.82902 5.88966 1.96967 6.03031C2.11032 6.17097 2.30109 6.24998 2.5 6.24998ZM6.5 4.74998C6.64834 4.74998 6.79334 4.79397 6.91668 4.87638C7.04001 4.95879 7.13614 5.07593 7.19291 5.21297C7.24968 5.35002 7.26453 5.50082 7.23559 5.6463C7.20665 5.79179 7.13522 5.92543 7.03033 6.03031C6.92544 6.1352 6.7918 6.20663 6.64632 6.23557C6.50083 6.26451 6.35003 6.24966 6.21299 6.19289C6.07594 6.13613 5.95881 6.04 5.8764 5.91666C5.79399 5.79332 5.75 5.64832 5.75 5.49998C5.75 5.30107 5.82902 5.11031 5.96967 4.96965C6.11032 4.829 6.30109 4.74998 6.5 4.74998ZM13.5 10.75H12.6213C12.4661 10.3114 12.1788 9.9316 11.799 9.66301C11.4191 9.39441 10.9653 9.25018 10.5 9.25018C10.0347 9.25018 9.58094 9.39441 9.20105 9.66301C8.82116 9.9316 8.53387 10.3114 8.37875 10.75H2.5C2.30109 10.75 2.11032 10.829 1.96967 10.9697C1.82902 11.1103 1.75 11.3011 1.75 11.5C1.75 11.6989 1.82902 11.8897 1.96967 12.0303C2.11032 12.171 2.30109 12.25 2.5 12.25H8.37875C8.53387 12.6886 8.82116 13.0684 9.20105 13.337C9.58094 13.6056 10.0347 13.7498 10.5 13.7498C10.9653 13.7498 11.4191 13.6056 11.799 13.337C12.1788 13.0684 12.4661 12.6886 12.6213 12.25H13.5C13.6989 12.25 13.8897 12.171 14.0303 12.0303C14.171 11.8897 14.25 11.6989 14.25 11.5C14.25 11.3011 14.171 11.1103 14.0303 10.9697C13.8897 10.829 13.6989 10.75 13.5 10.75ZM10.5 12.25C10.3517 12.25 10.2067 12.206 10.0833 12.1236C9.95999 12.0412 9.86386 11.924 9.80709 11.787C9.75033 11.65 9.73547 11.4992 9.76441 11.3537C9.79335 11.2082 9.86478 11.0745 9.96967 10.9697C10.0746 10.8648 10.2082 10.7933 10.3537 10.7644C10.4992 10.7355 10.65 10.7503 10.787 10.8071C10.9241 10.8638 11.0412 10.96 11.1236 11.0833C11.206 11.2066 11.25 11.3516 11.25 11.5C11.25 11.6989 11.171 11.8897 11.0303 12.0303C10.8897 12.171 10.6989 12.25 10.5 12.25Z" fill="#6D6D6D"/>
</g>
</svg>
