<svg width="14" height="14" viewBox="0 0 14 14" fill="none" xmlns="http://www.w3.org/2000/svg">
<path d="M13.6565 6.64875L10.8377 9.10875L11.6821 12.7712C11.7268 12.9627 11.714 13.1631 11.6454 13.3474C11.5768 13.5316 11.4555 13.6916 11.2965 13.8072C11.1375 13.9229 10.9479 13.9891 10.7515 13.9976C10.555 14.0061 10.3605 13.9565 10.1921 13.855L6.99771 11.9175L3.81021 13.855C3.64182 13.9565 3.44724 14.0061 3.25082 13.9976C3.05439 13.9891 2.86483 13.9229 2.70583 13.8072C2.54683 13.6916 2.42545 13.5316 2.35686 13.3474C2.28828 13.1631 2.27553 12.9627 2.32021 12.7712L3.16333 9.1125L0.343959 6.64875C0.19484 6.52014 0.0870106 6.35036 0.0339942 6.16071C-0.0190223 5.97107 -0.014866 5.76999 0.0459417 5.58269C0.106749 5.39539 0.221502 5.23022 0.375808 5.10788C0.530115 4.98554 0.717106 4.91149 0.913334 4.895L4.62958 4.57312L6.08021 1.11312C6.15596 0.93157 6.28374 0.77649 6.44745 0.667408C6.61116 0.558327 6.80349 0.500122 7.00021 0.500122C7.19693 0.500122 7.38926 0.558327 7.55297 0.667408C7.71668 0.77649 7.84446 0.93157 7.92021 1.11312L9.37521 4.57312L13.0902 4.895C13.2864 4.91149 13.4734 4.98554 13.6277 5.10788C13.782 5.23022 13.8968 5.39539 13.9576 5.58269C14.0184 5.76999 14.0226 5.97107 13.9695 6.16071C13.9165 6.35036 13.8087 6.52014 13.6596 6.64875H13.6565Z" fill="black"/>
</svg>
