<svg width="14" height="14" viewBox="0 0 14 14" fill="none" xmlns="http://www.w3.org/2000/svg">
<path d="M6.61512 1.18454C6.73626 0.811698 7.26374 0.8117 7.38488 1.18454L8.70525 5.24823C8.75943 5.41497 8.91481 5.52786 9.09014 5.52786H13.363C13.755 5.52786 13.918 6.02952 13.6008 6.25995L10.144 8.77145C10.0022 8.8745 9.94285 9.05716 9.99703 9.2239L11.3174 13.2876C11.4385 13.6604 11.0118 13.9705 10.6946 13.74L7.23787 11.2286C7.09603 11.1255 6.90397 11.1255 6.76213 11.2286L3.30535 13.74C2.98819 13.9705 2.56146 13.6604 2.6826 13.2876L4.00297 9.22391C4.05715 9.05716 3.9978 8.8745 3.85596 8.77145L0.39918 6.25995C0.08202 6.02952 0.24502 5.52786 0.637051 5.52786H4.90986C5.08519 5.52786 5.24057 5.41497 5.29475 5.24823L6.61512 1.18454Z" fill="#E0AD01"/>
</svg>
