<svg width="121" height="120" viewBox="0 0 121 120" fill="none" xmlns="http://www.w3.org/2000/svg">
<g clip-path="url(#clip0_3313_4133)">
<path opacity="0.2" d="M60.56 0H58.8784C26.6369 0 0.5 26.8629 0.5 60C0.5 93.1371 26.6369 120 58.8784 120H60.56C92.8015 120 118.938 93.1371 118.938 60C118.938 26.8629 92.8015 0 60.56 0Z" fill="#FFC6A6"/>
<path d="M85.75 64.3749C85.7457 68.4347 84.131 72.327 81.2603 75.1977C78.3896 78.0684 74.4973 79.6831 70.4375 79.6874C68.1169 79.6874 65.8913 80.6093 64.2503 82.2502C62.6094 83.8912 61.6875 86.1168 61.6875 88.4374C61.6875 89.0176 61.457 89.574 61.0468 89.9842C60.6366 90.3944 60.0802 90.6249 59.5 90.6249C58.9198 90.6249 58.3634 90.3944 57.9532 89.9842C57.543 89.574 57.3125 89.0176 57.3125 88.4374C57.3125 86.1168 56.3906 83.8912 54.7497 82.2502C53.1087 80.6093 50.8831 79.6874 48.5625 79.6874C44.5027 79.6831 40.6104 78.0684 37.7397 75.1977C34.869 72.327 33.2543 68.4347 33.25 64.3749C33.25 63.7948 33.4805 63.2384 33.8907 62.8281C34.3009 62.4179 34.8573 62.1874 35.4375 62.1874C36.0177 62.1874 36.5741 62.4179 36.9843 62.8281C37.3945 63.2384 37.625 63.7948 37.625 64.3749C37.625 65.8112 37.9079 67.2335 38.4576 68.5605C39.0072 69.8875 39.8129 71.0933 40.8285 72.1089C42.8797 74.1601 45.6617 75.3124 48.5625 75.3124C51.7937 75.3105 54.9109 76.5058 57.3125 78.6675V59.9999H48.5625C47.9823 59.9999 47.4259 59.7694 47.0157 59.3592C46.6055 58.949 46.375 58.3926 46.375 57.8124C46.375 57.2323 46.6055 56.6759 47.0157 56.2656C47.4259 55.8554 47.9823 55.6249 48.5625 55.6249H57.3125V47.6487C55.5501 47.1233 54.0357 45.981 53.0463 44.4308C52.0569 42.8807 51.6585 41.0261 51.924 39.2063C52.1895 37.3865 53.1011 35.7231 54.4922 34.5202C55.8833 33.3174 57.6609 32.6554 59.5 32.6554C61.3391 32.6554 63.1167 33.3174 64.5078 34.5202C65.8989 35.7231 66.8105 37.3865 67.076 39.2063C67.3415 41.0261 66.9431 42.8807 65.9537 44.4308C64.9643 45.981 63.4499 47.1233 61.6875 47.6487V55.6249H70.4375C71.0177 55.6249 71.5741 55.8554 71.9843 56.2656C72.3945 56.6759 72.625 57.2323 72.625 57.8124C72.625 58.3926 72.3945 58.949 71.9843 59.3592C71.5741 59.7694 71.0177 59.9999 70.4375 59.9999H61.6875V78.6675C64.0891 76.5058 67.2063 75.3105 70.4375 75.3124C71.8738 75.3124 73.2961 75.0295 74.6231 74.4799C75.9501 73.9302 77.1558 73.1245 78.1715 72.1089C79.1871 71.0933 79.9928 69.8875 80.5424 68.5605C81.0921 67.2335 81.375 65.8112 81.375 64.3749C81.375 63.7948 81.6055 63.2384 82.0157 62.8281C82.4259 62.4179 82.9823 62.1874 83.5625 62.1874C84.1427 62.1874 84.6991 62.4179 85.1093 62.8281C85.5195 63.2384 85.75 63.7948 85.75 64.3749Z" fill="#8C394C"/>
</g>
<defs>
<clipPath id="clip0_3313_4133">
<rect width="120" height="120" fill="white" transform="translate(0.5)"/>
</clipPath>
</defs>
</svg>
