<svg width="121" height="120" viewBox="0 0 121 120" fill="none" xmlns="http://www.w3.org/2000/svg">
<g id="yellow-model-cde10105 1" clip-path="url(#clip0_3194_1668)">
<path id="Vector" opacity="0.2" d="M60.56 0H58.8784C26.6369 0 0.5 26.8629 0.5 60C0.5 93.1371 26.6369 120 58.8784 120H60.56C92.8015 120 118.938 93.1371 118.938 60C118.938 26.8629 92.8015 0 60.56 0Z" fill="#F3B757"/>
<path id="Vector_2" d="M60.0301 53.3344C60.0301 52.6804 59.5144 52.1484 58.8781 52.1484C58.2418 52.1484 57.7261 52.6784 57.7261 53.3344C57.7261 65.3711 49.3443 75.4638 37.7993 77.3318C37.1698 77.4348 36.7407 78.0374 36.839 78.6881C36.9288 79.2694 37.4166 79.6891 37.9754 79.6891C38.0341 79.6891 38.0947 79.6821 38.1554 79.6714C50.8316 77.6198 60.0301 66.5468 60.0301 53.3344Z" fill="#F3B757"/>
<path id="Vector_3" d="M58.8773 26.6666C44.5717 26.6666 32.9324 38.6286 32.9324 53.3323C32.9324 53.9863 33.448 54.5163 34.0863 54.5163C34.7226 54.5163 35.2383 53.9863 35.2383 53.3323C35.2383 39.9336 45.8427 29.0346 58.8793 29.0346C71.9132 29.0346 82.5203 39.9336 82.5203 53.3323C82.5203 58.779 81.6657 64.1353 79.9776 69.2496C79.7736 69.87 80.095 70.54 80.7005 70.7503C80.8215 70.793 80.9479 70.8126 81.0689 70.8126C81.5483 70.8126 81.9978 70.503 82.1622 70.0093C83.9282 64.6493 84.8243 59.0406 84.8243 53.3326C84.8213 38.6283 73.183 26.6666 58.8773 26.6666Z" fill="#F3B757"/>
<path id="Vector_4" d="M64.987 53.3301C64.987 49.8671 62.2455 47.0508 58.8774 47.0508C55.5064 47.0508 52.7648 49.8668 52.7648 53.3301C52.7648 63.2514 45.5262 71.4644 35.9282 72.4341C35.2948 72.4998 34.8333 73.0778 34.8952 73.7298C34.9578 74.3788 35.5179 74.8518 36.1546 74.7928C46.9374 73.7014 55.0682 64.4734 55.0682 53.3301C55.0682 51.1738 56.7771 49.4191 58.8767 49.4191C60.9751 49.4191 62.682 51.1738 62.682 53.3301C62.682 66.9234 53.3211 78.9811 40.4262 81.9974C39.8071 82.1418 39.4179 82.7761 39.558 83.4144C39.6813 83.9641 40.1548 84.3391 40.6805 84.3391C40.7652 84.3391 40.8518 84.3288 40.9384 84.3054C54.8733 81.0451 64.987 68.0211 64.987 53.3301Z" fill="#F3B757"/>
<path id="Vector_5" d="M59.9241 90.8951C59.8874 90.8524 59.8462 90.8044 59.8115 90.7581C59.4486 90.2411 58.751 90.1127 58.236 90.4667C57.191 91.1851 56.1775 91.8247 55.1396 92.4117C54.5828 92.7297 54.382 93.4501 54.6901 94.0221C54.9963 94.5931 55.6985 94.8007 56.2556 94.4841C57.0648 94.0254 57.8591 93.5401 58.6615 93.0121C59.0799 93.4941 59.5261 93.9827 59.9935 94.4591C60.2199 94.6921 60.514 94.8054 60.8082 94.8054C61.1043 94.8054 61.3998 94.6921 61.6245 94.4591C62.074 93.9971 62.074 93.2464 61.6245 92.7864C61.0135 92.1681 60.4498 91.5367 59.9241 90.8951Z" fill="#F3B757"/>
<path id="Vector_6" d="M64.6584 79.9544C63.8334 78.2921 63.2178 76.5094 62.8283 74.6588C62.7316 74.2071 62.3908 73.8534 61.9516 73.7538C61.5122 73.6504 61.0558 73.8211 60.7824 74.1891C56.4949 79.9811 50.6794 84.1638 43.962 86.2918C43.3549 86.4838 43.0143 87.1471 43.2008 87.7724C43.3876 88.3981 44.0327 88.7484 44.6415 88.5531C51.0913 86.5124 56.7637 82.6954 61.1716 77.4564C61.5576 78.6888 62.0347 79.8831 62.6022 81.0314C64.4492 84.7594 67.2307 87.9594 70.64 90.2931C70.8287 90.4211 71.0554 90.4904 71.2821 90.4904C71.9184 90.4904 72.4322 89.9591 72.4341 89.3064C72.4341 88.8814 72.2142 88.5098 71.8892 88.3001C68.8221 86.1921 66.3206 83.3088 64.6584 79.9544Z" fill="#F3B757"/>
<path id="Vector_7" d="M78.6038 80.5413C74.6983 78.5379 72.2717 74.5186 72.2717 70.0496C72.2717 69.0809 72.3878 68.1083 72.6206 67.1679C73.5391 64.4839 74.1842 61.7019 74.5462 58.8983C74.7829 57.1063 74.9039 55.2346 74.9039 53.3343C74.9039 44.2519 67.712 36.8619 58.8758 36.8619C50.0392 36.8619 42.8486 44.2516 42.8486 53.3343C42.8486 58.2586 38.9551 62.2973 34.1674 62.3346C33.5311 62.3416 33.0193 62.8769 33.0242 63.5289C33.0294 64.1816 33.5451 64.7059 34.1762 64.7059H34.1866C40.2333 64.6546 45.1523 59.5523 45.1523 53.3343C45.1523 45.5569 51.3083 39.2299 58.8754 39.2299C66.4426 39.2299 72.6009 45.5569 72.6009 53.3343C72.6009 55.1279 72.4886 56.8929 72.2639 58.5836C71.9211 61.2466 71.3036 63.8863 70.4318 66.4323C70.4217 66.4643 70.411 66.4966 70.4023 66.5283C70.1117 67.6786 69.9647 68.8626 69.9647 70.0519C69.9647 75.4239 72.8843 80.2576 77.5753 82.6633C77.7414 82.7486 77.9143 82.7856 78.0891 82.7856C78.5113 82.7856 78.9174 82.5456 79.1217 82.1299C79.4068 81.5409 79.1746 80.8293 78.6038 80.5413Z" fill="#F3B757"/>
<path id="Vector_8" d="M75.6363 84.6936C70.5009 81.7143 67.3119 76.1039 67.3119 70.0489C67.3119 68.5913 67.4971 67.1319 67.8655 65.7129C68.4191 64.1203 68.8754 62.4386 69.2195 60.7213C69.7005 58.2979 69.9464 55.8109 69.9464 53.3333C69.9464 47.0613 64.9806 41.9596 58.8781 41.9596C52.7744 41.9596 47.807 47.0629 47.807 53.3333C47.807 60.8833 42.0681 67.0713 34.7397 67.4216C34.1049 67.4536 33.6136 68.0049 33.6431 68.6569C33.6729 69.3109 34.2227 69.8159 34.847 69.7859C43.4072 69.3769 50.1129 62.1506 50.1129 53.3343C50.1129 48.3676 54.0444 44.3283 58.8788 44.3283C63.7109 44.3283 67.6427 48.3689 67.6427 53.3343C67.6427 55.6543 67.4127 57.9796 66.9626 60.2439C66.6356 61.8743 66.2033 63.4706 65.6724 64.9836C65.6552 65.0316 65.6396 65.0846 65.6328 65.1366C65.2174 66.7436 65.0082 68.3969 65.0082 70.0539C65.0082 76.9616 68.6474 83.3609 74.5041 86.7573C74.6838 86.8623 74.8777 86.9103 75.0678 86.9103C75.4673 86.9103 75.8617 86.6949 76.0709 86.3056C76.3871 85.7353 76.1912 85.0123 75.6363 84.6936Z" fill="#F3B757"/>
<path id="Vector_9" d="M80.9147 76.0317C78.673 74.9417 77.2271 72.5937 77.2271 70.0534C77.2271 69.565 77.2806 69.0707 77.3912 68.5887L77.41 68.5407C77.4172 68.521 77.424 68.505 77.4311 68.4894C78.1644 66.2834 78.7352 64.013 79.126 61.7574C79.5551 59.3414 79.7987 56.8684 79.8454 54.4317C79.8593 54.0727 79.8645 53.71 79.8645 53.3417C79.8645 41.447 70.4517 31.7709 58.8769 31.7709C47.3037 31.7709 37.8889 41.447 37.8889 53.3417C37.8889 55.4677 36.2043 57.224 34.1354 57.2527C33.4991 57.2617 32.9903 57.7984 32.999 58.4524C33.0081 59.1064 33.5147 59.608 34.1666 59.6204C37.489 59.574 40.1925 56.7564 40.1925 53.341C40.1925 42.7534 48.5724 34.1384 58.8762 34.1384C69.178 34.1384 77.5576 42.753 77.5576 53.341C77.5576 53.679 77.5547 54.0094 77.5407 54.3617C77.4976 56.694 77.2654 59.039 76.8558 61.339C76.487 63.474 75.9493 65.6147 75.2543 67.6997C75.2303 67.76 75.2111 67.819 75.1904 67.8827C75.1803 67.9164 75.1696 67.945 75.1625 67.9767C75.0016 68.6634 74.9189 69.3614 74.9189 70.062C74.9189 73.511 76.8853 76.698 79.9262 78.1774C80.0854 78.2537 80.2511 78.2894 80.4172 78.2894C80.8498 78.2894 81.2594 78.037 81.4602 77.612C81.7346 77.0134 81.4891 76.3094 80.9147 76.0317Z" fill="#F3B757"/>
<path id="Vector_10" d="M63.7112 87.6118C62.6662 86.3498 61.7376 85.0034 60.9573 83.6171C60.7845 83.3114 60.4903 83.1014 60.1494 83.0428C59.8137 82.9878 59.4644 83.0804 59.2069 83.3128C56.071 86.0931 52.5495 88.3261 48.7394 89.9438C48.2879 90.1038 47.9642 90.5444 47.9642 91.0654C47.9642 91.7181 48.4832 92.2494 49.1179 92.2494C49.2683 92.2494 49.4172 92.2178 49.5573 92.1588C53.2037 90.6171 56.6023 88.5448 59.6759 85.9938C60.3609 87.0818 61.1237 88.1361 61.9575 89.1418C63.1183 90.5478 64.4289 91.8544 65.8543 93.0294C66.0651 93.2054 66.3233 93.2891 66.574 93.2891C66.9096 93.2891 67.2466 93.1398 67.4753 92.8478C67.8709 92.3378 67.7934 91.5911 67.2953 91.1804C65.9804 90.1058 64.7785 88.9074 63.7112 87.6118Z" fill="#F3B757"/>
</g>
<defs>
<clipPath id="clip0_3194_1668">
<rect width="120" height="120" fill="white" transform="translate(0.5)"/>
</clipPath>
</defs>
</svg>
